<svg xmlns="http://www.w3.org/2000/svg" width="320" height="320" viewBox="0 0 320 320" role="img" aria-label="The Adventures of Sherlock Holmes cover">
  <defs>
    <linearGradient id="bg" x1="0" y1="0" x2="0" y2="1">
      <stop offset="0" stop-color="#3a1b12"/>
      <stop offset="1" stop-color="#1a0c08"/>
    </linearGradient>
    <radialGradient id="glow" cx="50%" cy="34%" r="60%">
      <stop offset="0" stop-color="#C98A6A" stop-opacity="0.35"/>
      <stop offset="1" stop-color="#C98A6A" stop-opacity="0"/>
    </radialGradient>
  </defs>
  <rect width="320" height="320" rx="20" fill="url(#bg)"/>
  <rect width="320" height="320" rx="20" fill="url(#glow)"/>
  <rect x="18" y="18" width="284" height="284" rx="12" fill="none" stroke="#C98A6A" stroke-opacity="0.45" stroke-width="1.5"/>
  <!-- deerstalker / pipe abstract mark -->
  <g transform="translate(160 116)" fill="none" stroke="#F4B400" stroke-width="3" stroke-linecap="round" stroke-linejoin="round" opacity="0.92">
    <path d="M-44 6 q44 -52 88 0 q-12 14 -44 14 q-32 0 -44 -14 z"/>
    <path d="M-54 6 q10 10 10 10 M54 6 q-10 10 -10 10"/>
    <circle cx="0" cy="-20" r="4" fill="#F4B400" stroke="none"/>
  </g>
  <text x="160" y="190" text-anchor="middle" fill="#FBF8F2" font-family="Georgia, 'Times New Roman', serif" font-size="20" font-weight="700" letter-spacing="1.5">THE ADVENTURES</text>
  <text x="160" y="216" text-anchor="middle" fill="#FBF8F2" font-family="Georgia, 'Times New Roman', serif" font-size="20" font-weight="700" letter-spacing="1.5">OF SHERLOCK HOLMES</text>
  <rect x="120" y="232" width="80" height="2" fill="#C98A6A" opacity="0.7"/>
  <text x="160" y="262" text-anchor="middle" fill="#d8b9a8" font-family="Georgia, serif" font-size="14" letter-spacing="2">A. CONAN DOYLE</text>
  <text x="160" y="290" text-anchor="middle" fill="#8a6a59" font-family="Inter, system-ui, sans-serif" font-size="10" letter-spacing="3">PUBLIC DOMAIN · LIBRIVOX</text>
</svg>
